<svg width="396" height="219" viewBox="0 0 396 219" fill="none" xmlns="http://www.w3.org/2000/svg">
<path d="M124 89H356C378.091 89 396 106.909 396 129C396 151.091 378.091 169 356 169H124V89Z" fill="#FC8346"/>
<path d="M28.9497 58.9694L31.2016 152.441C31.2436 153.851 31.7554 155.206 32.6556 156.292C33.5557 157.378 34.7928 158.131 36.1703 158.434L124.404 176.955C125.786 177.232 127.222 177.039 128.483 176.407C129.744 175.775 130.757 174.74 131.362 173.466L171.01 88.7896C171.462 87.7988 171.651 86.7081 171.558 85.6231C171.465 84.538 171.093 83.4953 170.479 82.5958C169.865 81.6963 169.03 80.9705 168.053 80.4885C167.077 80.0066 165.992 79.7848 164.905 79.8446L130.13 82.3638L104.216 65.1095C103.552 64.6541 102.805 64.3346 102.018 64.1693C101.231 64.004 100.418 63.9963 99.6281 64.1465L68.963 69.5241L38.1363 53.2344C37.1648 52.7423 36.0827 52.5093 34.9948 52.5579C33.9068 52.6065 32.8499 52.9351 31.9261 53.5118C31.0023 54.0885 30.2429 54.8939 29.7215 55.8499C29.2001 56.806 28.9343 57.8805 28.9497 58.9694Z" fill="#FB3F3F" stroke="#191716" stroke-width="2" stroke-linecap="round" stroke-linejoin="round"/>
<path d="M68.963 69.524L61.9369 163.842" stroke="black" stroke-linecap="round" stroke-linejoin="round"/>
<path d="M130.13 82.3638L98.6369 171.546" stroke="#191716" stroke-linecap="round" stroke-linejoin="round"/>
<path d="M168.756 80.8927C169.755 76.142 169.508 71.2137 168.037 66.5871C166.567 61.9605 163.924 57.7932 160.366 54.4906C156.808 51.1881 152.456 48.8628 147.733 47.7409C143.01 46.6191 138.076 46.7388 133.413 48.0886C133.384 41.6728 131.155 35.4611 127.1 30.4895C123.045 25.5179 117.407 22.0869 111.128 20.7689C104.849 19.4509 98.3084 20.3254 92.5962 23.2467C86.884 26.168 82.3461 30.9594 79.7393 36.8218C76.0125 33.7108 71.5439 31.6175 66.7683 30.7455C61.9927 29.8735 57.0726 30.2524 52.4869 31.8454C47.9011 33.4384 43.8058 36.1913 40.5993 39.8362C37.3928 43.4812 35.1844 47.894 34.1889 52.6454" stroke="black" stroke-width="2" stroke-linecap="round" stroke-linejoin="round"/>
<path d="M47.5 160.5L44 56.5" stroke="#191716"/>
<path d="M112.5 174.5L158 80.5" stroke="#191716"/>
<path d="M101 64L79 167" stroke="#191716"/>
<path d="M188.552 109.992H196.84C197.624 109.992 198.016 110.384 198.016 111.168V144.824C198.016 145.608 197.624 146 196.84 146H192.248C191.464 146 191.072 145.608 191.072 144.824V118.28H190.848L185.136 137.04C184.912 137.787 184.445 138.16 183.736 138.16H179.032C178.323 138.16 177.856 137.787 177.632 137.04L171.808 118.224H171.584V144.824C171.584 145.272 171.509 145.589 171.36 145.776C171.211 145.925 170.893 146 170.408 146H165.816C165.032 146 164.64 145.608 164.64 144.824V111.168C164.64 110.384 165.032 109.992 165.816 109.992H174.16C174.683 109.992 175.037 110.253 175.224 110.776L181.16 130.544H181.496L187.488 110.776C187.6 110.253 187.955 109.992 188.552 109.992ZM224.033 139.84H228.009C229.203 139.84 230.043 139.597 230.529 139.112C231.051 138.589 231.313 137.731 231.313 136.536V119.456C231.313 118.261 231.051 117.421 230.529 116.936C230.043 116.413 229.203 116.152 228.009 116.152H224.033C222.838 116.152 221.998 116.413 221.513 116.936C221.027 117.421 220.785 118.261 220.785 119.456V136.536C220.785 137.731 221.027 138.589 221.513 139.112C221.998 139.597 222.838 139.84 224.033 139.84ZM229.185 146H222.913C219.963 146 217.686 145.216 216.081 143.648C214.475 142.08 213.673 139.821 213.673 136.872V119.12C213.673 116.171 214.475 113.912 216.081 112.344C217.686 110.776 219.963 109.992 222.913 109.992H229.185C232.134 109.992 234.411 110.776 236.017 112.344C237.622 113.912 238.425 116.171 238.425 119.12V136.872C238.425 139.821 237.622 142.08 236.017 143.648C234.411 145.216 232.134 146 229.185 146ZM268.763 146H261.427C260.643 146 260.177 145.608 260.027 144.824L251.347 111.28C251.086 110.421 251.459 109.992 252.467 109.992H257.731C258.478 109.992 258.926 110.384 259.075 111.168L264.955 138.72H265.179L271.059 111.168C271.209 110.384 271.657 109.992 272.403 109.992H277.667C278.601 109.992 278.974 110.421 278.787 111.28L270.107 144.824C269.921 145.608 269.473 146 268.763 146ZM299.646 111.168V144.824C299.646 145.608 299.254 146 298.47 146H293.71C292.926 146 292.534 145.608 292.534 144.824V111.168C292.534 110.384 292.926 109.992 293.71 109.992H298.47C299.254 109.992 299.646 110.384 299.646 111.168ZM335.632 146H317.32C316.536 146 316.144 145.608 316.144 144.824V111.168C316.144 110.384 316.536 109.992 317.32 109.992H335.632C336.379 109.992 336.752 110.384 336.752 111.168V114.976C336.752 115.76 336.379 116.152 335.632 116.152H323.928C323.48 116.152 323.256 116.357 323.256 116.768V124.048C323.256 124.459 323.48 124.664 323.928 124.664H333.504C334.288 124.664 334.68 125.056 334.68 125.84V129.648C334.68 130.432 334.288 130.824 333.504 130.824H323.928C323.48 130.824 323.256 131.029 323.256 131.44V139.224C323.256 139.635 323.48 139.84 323.928 139.84H335.632C336.379 139.84 336.752 140.232 336.752 141.016V144.824C336.752 145.608 336.379 146 335.632 146ZM371.389 146H353.077C352.293 146 351.901 145.608 351.901 144.824V111.168C351.901 110.384 352.293 109.992 353.077 109.992H371.389C372.136 109.992 372.509 110.384 372.509 111.168V114.976C372.509 115.76 372.136 116.152 371.389 116.152H359.685C359.237 116.152 359.013 116.357 359.013 116.768V124.048C359.013 124.459 359.237 124.664 359.685 124.664H369.261C370.045 124.664 370.437 125.056 370.437 125.84V129.648C370.437 130.432 370.045 130.824 369.261 130.824H359.685C359.237 130.824 359.013 131.029 359.013 131.44V139.224C359.013 139.635 359.237 139.84 359.685 139.84H371.389C372.136 139.84 372.509 140.232 372.509 141.016V144.824C372.509 145.608 372.136 146 371.389 146Z" fill="black"/>
<path d="M67.5581 52.4107C71.8064 52.7647 75.8748 53.1988 80.1686 53.1988" stroke="white" stroke-width="3" stroke-linecap="round"/>
<path d="M102.359 40.0526V40.1145" stroke="white" stroke-width="23" stroke-linecap="round"/>
<path d="M111.822 46.9795C112.079 47.9062 112.515 48.756 112.921 49.6218C113.121 50.0486 113.328 50.4924 113.663 50.8347C113.712 50.884 113.937 51.0677 114.01 50.9652C114.217 50.6762 113.172 49.9799 113.028 49.8932C112.366 49.4943 111.718 49.1427 111.121 48.6425C110.555 48.1685 110.183 47.5561 109.571 47.1204C109.141 46.8138 108.685 46.63 108.214 46.4091C107.965 46.2925 107.728 46.0752 107.492 45.9281" stroke="white" stroke-width="23" stroke-linecap="round"/>
<path d="M83.8334 53.3547C83.5059 53.322 83.1336 53.1988 82.8256 53.088C82.5879 53.0024 81.8319 52.9279 82.0846 52.9279C83.9025 52.9279 85.8832 52.843 87.6627 52.4537C87.805 52.4226 89.4406 51.9211 88.878 51.855C87.5402 51.6976 86.1874 51.7542 84.8411 51.7542C83.5344 51.7542 82.2138 51.7731 80.9583 51.3807C80.5522 51.2538 80.0431 51.3274 79.6186 51.3274C79.0603 51.3274 78.3991 51.2398 77.8047 51.1673C77.23 51.0972 76.7361 50.8777 76.1746 50.7702C75.5812 50.6565 74.9813 50.5901 74.3843 50.4975C73.4114 50.3465 72.3636 50.3961 71.4323 50.13C69.5574 49.5943 67.7023 49.0267 65.8838 48.3397C63.7142 47.5201 61.4971 47.537 59.209 47.4861C58.6389 47.4735 58.1136 47.2858 57.5611 47.1897C57.2917 47.1429 55.6371 46.9128 55.7709 46.8459" stroke="white" stroke-width="23" stroke-linecap="round"/>
<path d="M118.085 57.9429C119.083 58.7983 120.757 59.266 121.985 59.7331C122.645 59.9839 123.539 60.263 124.25 60.2903C126.384 60.3724 128.534 60.9305 130.675 60.9305" stroke="white" stroke-width="23" stroke-linecap="round"/>
<path d="M146.554 66.1661C146.532 66.3417 146.412 66.3398 146.742 66.344C147.41 66.3526 147.989 66.3942 148.635 66.5615C149.072 66.6748 149.571 66.6993 150.019 66.7889C150.307 66.8466 150.905 66.9605 151.111 67.125C151.283 67.2624 151.926 67.1447 152.159 67.1447" stroke="white" stroke-width="23" stroke-linecap="round"/>
<path d="M137.035 68.924C136.774 68.924 136.59 69.4307 136.59 69.1909" stroke="white" stroke-width="23" stroke-linecap="round"/>
<path d="M138.102 67.5006C138.102 67.0585 138.39 66.6735 138.503 66.2501C138.595 65.9018 138.686 65.3183 138.923 65.0293C139.143 64.7595 139.456 64.3211 139.531 63.9864C139.636 63.5142 140.085 63.54 140.307 63.1413C140.474 62.8403 140.669 62.5414 140.91 62.301C141.09 62.1208 141.318 61.9689 141.483 61.7623C141.633 61.5749 141.985 61.5317 142.175 61.3422C142.287 61.2295 142.872 60.9294 142.995 61.1445C143.214 61.5267 143.794 61.1802 143.974 61.5399" stroke="white" stroke-width="23" stroke-linecap="round"/>
<path d="M103.939 50.4193C103.616 50.4193 103.528 50.5861 103.228 50.6861" stroke="white" stroke-width="23" stroke-linecap="round"/>
<path d="M105.897 39.0317C106.459 38.9692 106.756 38.1702 107.32 38.142C107.686 38.1237 108.047 37.9779 108.407 37.9641C108.974 37.9423 109.519 37.6972 110.098 37.6972C110.768 37.6972 111.382 37.5193 112.035 37.5193C112.34 37.5193 113.424 37.8566 112.925 38.231" stroke="white" stroke-width="23" stroke-linecap="round"/>
<path d="M114.17 39.9213C114.564 40.3645 114.678 41.0907 115.129 41.5425C115.391 41.8041 115.308 41.9085 115.243 42.1998C115.162 42.5629 115.295 42.9151 115.105 43.2575C114.928 43.5747 115.224 43.6032 115.238 43.8358C115.253 44.0858 115.354 44.4223 115.411 44.681C115.552 45.314 115.416 46.1225 115.416 46.7717" stroke="white" stroke-width="23" stroke-linecap="round"/>
<path d="M100.47 48.9958C99.6946 48.8407 98.8257 48.6058 98.1171 48.2346C97.7845 48.0604 97.5195 47.6609 97.267 47.3944C96.9231 47.0313 96.9143 46.652 96.6838 46.2329C96.4844 45.8703 96.2105 45.5511 96.0413 45.1703C95.8418 44.7215 95.9325 44.0586 95.9325 43.5689C95.9325 43.1179 95.7695 42.2899 95.9523 41.8786C96.2041 41.3121 95.3978 41.4448 95.0429 41.236C94.8552 41.1256 94.608 40.7666 94.4696 40.5886C94.3314 40.4109 94.0692 40.4919 93.9555 40.2772C93.7706 39.9278 93.4184 39.5139 93.4415 39.1206C93.4423 39.1079 93.8796 38.7079 93.9358 38.6758C94.196 38.5271 94.2807 38.4089 94.5981 38.4089" stroke="white" stroke-width="23" stroke-linecap="round"/>
<path d="M94.9539 38.4089C95.451 38.4089 97.1714 38.8243 97.267 37.9641C97.2997 37.6699 97.4823 37.4384 97.529 37.1585C97.6003 36.7304 98.2459 36.8965 98.6015 36.8965C98.9774 36.8965 99.3483 36.8838 99.7136 36.8026C99.9651 36.7467 100.214 36.4659 100.47 36.4517C101.218 36.4101 101.867 36.5483 102.447 36.0266C102.584 35.9034 103.27 36.0068 103.45 36.0068C103.893 36.0068 104.314 35.943 104.74 35.9179C104.945 35.9058 105.303 35.8367 105.368 35.6114C105.389 35.5389 106.046 35.3669 106.164 35.3149C106.442 35.1913 106.731 35.1382 107.009 34.9837C107.236 34.8574 107.688 34.7763 107.943 34.7613C108.225 34.7448 108.698 34.4055 108.081 34.4055C107.777 34.4055 107.544 34.2275 107.231 34.2275" stroke="white" stroke-width="23" stroke-linecap="round"/>
<path d="M109.722 44.9034C110.281 44.9034 111.078 44.8545 111.61 45.0121C112.407 45.2481 112.98 45.7953 113.721 46.144C114.334 46.4328 114.873 46.6802 115.505 46.8606C115.93 46.9819 116.406 47.2814 116.839 47.3055C117.297 47.3309 117.423 47.4025 117.818 47.2363C118.076 47.1276 118.527 47.3364 118.624 46.999C118.675 46.8187 118.935 46.5322 119.044 46.396C119.239 46.1523 119.116 45.8273 119.059 45.5706C119.022 45.4058 119.041 44.6859 118.841 44.6414C118.589 44.5855 118.303 44.4449 118.263 44.1027C118.238 43.8934 117.771 43.6576 117.66 43.4799C117.473 43.1811 117.168 43.3769 116.889 43.2971C116.783 43.2668 116.689 43.0304 116.573 42.9659C116.439 42.8919 116.301 42.8737 116.167 42.8127C115.936 42.7078 115.456 42.4319 115.327 42.1949C115.24 42.0346 115.109 41.7028 114.927 41.6216C114.81 41.5699 114.614 41.6772 114.526 41.5672C114.411 41.4233 113.992 41.196 113.815 41.0779" stroke="white" stroke-width="23" stroke-linecap="round"/>
<path d="M67.9085 45.6151C67.4549 45.7285 66.6621 46.1698 66.1984 45.882C65.9504 45.7281 65.6939 45.5338 65.4866 45.368C65.3883 45.2893 64.8491 45.2668 64.7057 45.2592C64.4138 45.2439 64.1405 45.1703 63.8358 45.1703C63.5308 45.1703 63.2415 45.1551 62.9462 45.2395C62.6457 45.3253 62.173 45.4372 61.8588 45.4372C61.0796 45.4372 60.3191 45.931 59.5457 46.0599" stroke="white" stroke-width="23" stroke-linecap="round"/>
<path d="M64.1719 50.3303C64.3657 50.3303 65.0393 50.2319 65.1554 50.4835C65.3147 50.8286 65.4914 50.9633 65.7337 51.2199C65.9322 51.4301 65.9644 51.8085 66.1736 51.9712C66.3413 52.1016 66.7742 52.0206 66.9693 52.0206C67.4009 52.0206 67.8912 52.1096 68.3532 52.1096C68.7924 52.1096 69.2181 52.0834 69.6383 52.2035C72.1159 52.9114 74.7185 53.533 77.3388 53.533" stroke="white" stroke-width="23" stroke-linecap="round"/>
<path d="M99.2242 25.7758C99.2242 25.3687 99.2961 24.6759 99.5999 24.3721C99.7588 24.2132 100.239 24.2918 100.47 24.0855C100.691 23.8875 101.116 23.9729 101.354 23.7741C101.522 23.6342 102.228 23.4627 102.471 23.4627C102.616 23.4627 103.051 23.4627 102.906 23.4627C102.57 23.4627 102.308 23.6406 101.982 23.6406" stroke="white" stroke-width="2" stroke-linecap="round"/>
<path d="M95.5767 26.3096C95.645 25.6945 97.5824 25.1238 98.1369 24.9949C98.5815 24.8915 98.9021 24.576 99.333 24.4611C100.286 24.2071 101.462 24.3016 102.427 24.3524" stroke="white" stroke-width="2" stroke-linecap="round"/>
<path d="M82.2318 39.1206C82.1499 39.1309 82.1729 39.1495 82.1429 39.2096" stroke="white" stroke-width="2" stroke-linecap="round"/>
<path d="M81.876 39.2096C81.3604 39.3569 80.8036 39.327 80.2796 39.3925C79.8079 39.4514 79.314 39.5655 78.8314 39.5655C77.9148 39.5655 76.9953 39.4765 76.0933 39.4765" stroke="white" stroke-width="2" stroke-linecap="round"/>
<path d="M67.6416 60.9172C67.4716 61.4452 67.2346 61.9298 67.0386 62.4444C66.9769 62.6063 67.1599 62.6971 67.2659 62.7854C67.685 63.1347 67.9117 63.6799 68.0815 64.1891C68.2416 64.6695 68.986 64.7882 69.3813 65.0096C69.6602 65.1657 69.93 65.1719 70.2413 65.2073C70.6841 65.2575 71.1062 65.4103 71.5511 65.4445C72.1396 65.4898 72.7437 65.377 73.3354 65.3654C73.6788 65.3587 74.1035 65.2865 74.4326 65.1924C75.1074 64.9996 73.0539 65.4631 72.3567 65.5434C71.8367 65.6032 71.2786 65.7213 70.7554 65.7213C70.3819 65.7213 70.3021 65.8834 69.9942 66.0821C69.8323 66.1866 69.062 67.1803 68.9958 67.036C68.8464 66.7099 68.9179 66.4651 68.6696 66.1266C68.405 65.7657 68.3752 65.0107 67.9974 64.8119C67.6989 64.6547 67.3496 64.6116 67.0633 64.4263C66.7624 64.2316 66.537 63.9927 66.2181 63.8332C65.7934 63.6208 65.485 63.403 64.9924 63.339C64.6476 63.2942 64.2821 63.2661 63.9446 63.1858C63.2909 63.0301 62.698 62.7543 62.0763 62.5136C60.7951 62.0176 59.5663 61.468 58.4089 60.7392C58.2541 60.6418 57.9331 60.4111 57.7664 60.3834C57.5985 60.3554 57.4394 60.0866 57.2326 60.0275C56.5585 59.8349 55.9871 59.3998 55.3643 59.0884C54.5985 58.7055 53.8439 58.2913 53.0562 57.9368C52.2924 57.5931 51.5814 57.0705 50.7826 56.8247C49.8567 56.5398 48.9813 56.0348 48.089 55.7374C47.6518 55.5917 47.2796 55.1693 46.8632 55.0504C46.3548 54.9051 45.8769 54.5652 45.3607 54.4177C45.0475 54.3283 44.5631 53.8905 44.2437 53.7307C43.8968 53.5573 43.59 53.3486 43.2651 53.1574C43.1152 53.0692 43.0121 52.8868 42.8647 52.8213C42.7061 52.7508 42.5033 52.7571 42.3754 52.6434C42.0911 52.3907 41.7584 52.4409 41.4857 52.1985C41.1119 51.8663 40.5637 51.5119 40.1068 51.3089C39.7957 51.1706 39.4752 50.8641 39.1282 50.8641C38.3346 50.8641 37.2278 50.7427 37.9469 49.747C38.2321 49.3522 38.5883 48.946 39.0343 48.7289C39.7142 48.3979 40.5605 48.3557 41.2979 48.3681C42.6472 48.3908 44.3159 48.5895 45.4101 49.4703C45.9528 49.907 46.1764 50.7728 46.2009 51.4473C46.2178 51.9129 45.9241 52.0289 45.6671 52.3715C45.3765 52.7591 44.8294 52.5427 44.5699 52.2183C44.091 51.6198 45.9109 52.9615 46.5716 53.3501C47.057 53.6357 47.176 53.8651 46.537 53.6714C45.4777 53.3504 44.6169 52.5311 43.6209 52.07C42.9162 51.7438 42.2237 51.3318 41.4956 51.0815C41.3163 51.0199 40.7245 50.7315 40.6851 50.5082C40.6749 50.4506 40.2442 50.0786 40.1513 50.0189C40.0077 49.9266 39.4864 49.8854 39.657 49.8854C40.6366 49.8854 41.5988 50.0892 42.583 50.0436C43.2332 50.0135 43.8941 49.8225 44.4117 50.3402C44.784 50.7124 44.8484 51.3088 45.2717 51.645C45.7211 52.0019 44.4748 51.3665 44.3326 51.3138C43.5664 51.03 42.8912 50.6157 42.1184 50.3698C41.6651 50.2256 41.2041 50.1677 40.7543 50.0436C40.2362 49.9007 39.2122 50.0889 38.9057 49.6383C38.7012 49.3375 38.542 49.0107 38.4164 48.6844C38.1502 47.9922 39.1548 47.1731 39.657 46.91C39.8948 46.7855 40.2671 46.5465 40.5516 46.6135C40.9618 46.71 41.5503 47.3891 41.8614 47.6218C42.6735 48.2291 43.4792 48.8726 44.4315 49.2429C45.6445 49.7146 44.498 46.7406 44.3524 46.2774C44.2904 46.0801 43.932 46.3329 43.8186 46.4158C43.4615 46.6768 43.9019 47.1991 43.7297 47.34C43.5237 47.5085 43.1577 47.4091 42.929 47.5921C42.8173 47.6815 42.6019 47.4736 42.5187 47.4241C41.8463 47.0238 41.1213 46.7137 40.4379 46.3318C40.1734 46.1839 40.1146 46.1471 39.8745 45.9907C39.7772 45.9274 39.4972 45.8655 39.5878 45.793C39.6374 45.7534 39.8965 45.7699 39.9733 45.7485C40.3214 45.6519 40.5572 45.6262 40.8828 45.4372C41.627 45.005 42.1651 44.6365 43.0525 44.6365C43.7949 44.6365 44.1916 44.8644 44.0262 45.6546C43.9247 46.1394 43.4045 47.3804 42.7214 47.0633C41.7512 46.6128 42.8947 45.8675 43.2749 45.4767C43.6348 45.1069 42.9306 45.1703 42.7609 45.1703C42.1576 45.1703 41.3159 45.3441 41.7032 44.4783C41.9398 43.9495 42.4521 43.459 42.8202 43.0153C43.2959 42.442 43.8864 42.0846 44.5798 41.8291C44.9823 41.6808 45.4659 41.4676 45.9044 41.4733C46.7145 41.4837 45.6702 42.6506 45.4892 42.8769C45.2124 43.2229 44.8882 43.4595 44.5649 43.7468C44.4563 43.8434 44.5992 43.945 44.5847 43.8654C44.4903 43.3462 43.7166 43.1319 43.6259 42.7237C43.5238 42.2643 45.6823 41.4539 46.0625 41.1471C46.4372 40.8447 46.6795 40.4821 47.0065 40.1388C47.2887 39.8425 47.5561 39.6544 47.0016 39.6544C45.2533 39.6544 43.7378 40.2015 42.4199 41.2558C42.1853 41.4435 42.0072 41.8288 41.7922 42.0565C41.5978 42.2623 41.7037 42.4714 41.6587 42.7188C41.6247 42.906 41.3128 43.5357 41.1793 43.5738C40.9157 43.6492 40.7186 44.2452 40.5763 44.4586C40.4052 44.7152 39.9214 44.9261 39.8844 45.2592C39.8671 45.4149 39.4375 45.8658 39.3061 45.971C39.1027 46.1336 39.1016 46.6506 38.9502 46.7717C38.7232 46.9533 38.8518 47.5868 38.6191 47.8195C38.3671 48.0714 38.3872 48.3835 38.1743 48.6202C38.0127 48.7997 38.0424 49.163 37.9074 49.3319C37.8071 49.4572 37.1643 49.8854 37.5713 49.8854" stroke="white" stroke-width="2" stroke-linecap="round"/>
<path d="M45.1333 41.7896C45.3959 41.7604 45.6175 41.4348 45.7758 41.2558C46.175 40.8046 46.775 40.5432 47.0658 39.9905C47.2424 39.6551 47.1869 39.4312 46.7347 39.4814C46.4567 39.5123 46.2278 39.7069 45.9439 39.7384C45.6331 39.773 45.4304 39.7617 45.1333 39.9015C44.3633 40.2639 44.7354 39.8703 45.2519 39.5655C45.9254 39.168 46.5589 38.9093 47.3179 38.7648C48.068 38.6219 48.826 38.5335 49.5371 38.226C49.8952 38.0712 50.261 37.8957 50.5998 37.7021C51.0803 37.4275 50.0844 37.7056 49.9671 37.7367C49.17 37.9484 48.3989 38.2412 47.5996 38.4484C47.5594 38.4589 47.1317 38.5885 47.1103 38.5671C46.9112 38.3679 48.6655 37.2051 48.9588 37.0794C50.0867 36.596 51.3883 36.298 52.6015 36.0958C53.5398 35.9394 54.4315 35.9179 55.3841 35.9179C55.7729 35.9179 56.1617 35.9179 56.5505 35.9179C56.969 35.9179 55.7136 35.9111 55.2951 35.9179C53.3423 35.9496 51.4385 36.4914 49.5075 36.7186C48.9942 36.7789 48.4423 37.0744 47.9407 37.0744C47.3918 37.0744 46.2687 37.5865 46.2009 38.231C46.1813 38.4171 45.9638 38.5452 45.8006 38.6758C45.5622 38.8665 45.4436 39.0105 45.2618 39.2442C45.158 39.3777 44.7587 39.4458 44.6193 39.5852C44.4669 39.7376 44.3015 39.8024 44.0657 39.9411C43.3989 40.3333 45.1814 39.7007 45.3656 39.6445C46.7866 39.211 48.0744 38.5878 49.1763 37.6181C49.5169 37.3184 50.0772 36.966 49.4037 36.7878C49.24 36.7444 49.0748 36.6702 48.9144 36.6345C48.5531 36.5542 49.3748 36.3363 49.5322 36.2737C51.1201 35.6422 52.8394 35.7027 54.4697 35.2951C55.0336 35.1542 55.5247 34.7672 56.0761 34.5834C56.1872 34.5464 57.1207 34.2657 56.7779 34.361C56.2232 34.5151 55.6148 34.5641 55.048 34.6724C53.5604 34.9565 51.8604 34.8279 50.4811 35.5175C50.1107 35.7027 49.4035 36.241 50.2439 35.7202C50.7713 35.3933 51.3974 35.022 51.9985 34.8503C52.4623 34.7178 53.0921 34.6621 53.4961 34.3857C54.3343 33.8122 55.752 33.8717 56.7384 33.8717C57.5688 33.8717 58.3913 33.679 59.2294 33.6937C60.164 33.7101 61.2233 34.1118 62.1059 34.3857C62.1992 34.4146 62.513 34.4105 62.2048 34.4055C61.3479 34.3914 60.527 34.1356 59.6841 34.0101C58.7711 33.8741 57.8004 33.9606 56.8768 33.9606C55.8845 33.9606 57.1698 33.4218 57.5292 33.2687C58.0467 33.0481 58.7042 33.1599 59.259 33.1599C60.807 33.1599 62.4465 33.1576 63.9544 33.4318C64.5054 33.532 65.0331 33.6819 65.5756 33.8321C66.4662 34.0788 67.3774 34.0779 68.2446 34.4055C68.7935 34.6128 69.4759 34.781 69.9151 35.1617C70.0937 35.3164 70.3783 35.6147 70.5774 35.7202C70.7363 35.8043 70.3545 35.1016 70.3105 35.043C69.9715 34.591 69.3772 34.3279 68.8475 34.1929C68.15 34.0151 67.4827 33.7869 66.7915 33.585C65.5661 33.227 64.2814 33.2489 63.0154 33.2489C62.9306 33.2489 62.1633 33.2292 62.2542 33.1599C62.4487 33.0118 62.8804 33.0724 63.0944 33.071C63.6282 33.0674 64.1621 33.071 64.6958 33.071C65.5214 33.071 66.3677 33.2518 67.1869 33.3428C67.7012 33.4 68.3498 33.6761 68.8278 33.8717C69.2568 34.0472 69.686 34.2276 70.1128 34.3857C70.4502 34.5106 70.9523 34.7049 71.2002 34.9837C71.5594 35.3878 71.926 35.3753 72.3468 35.6559C73.0803 36.1449 74.0359 36.1785 74.5809 36.9657C74.7611 37.226 75.0418 37.1602 75.2926 37.2919C75.699 37.5053 75.9873 37.9428 76.3997 38.1815C76.7778 38.4004 77.0546 38.3201 77.4278 38.4534C77.869 38.611 78.3617 38.7648 78.8314 38.7648C79.1203 38.7648 79.3659 38.9109 79.6519 38.9427C80.3644 39.0219 81.1502 39.2767 81.8315 38.8982C82.3495 38.6105 82.1619 37.9641 82.8547 37.9641" stroke="white" stroke-width="2" stroke-linecap="round"/>
<path d="M108.477 61.184C108.148 61.3154 107.891 61.5673 107.552 61.7178C107.279 61.8392 107.044 61.8958 106.737 61.8958C105.954 61.8958 105.2 62.279 104.404 61.9847C104.062 61.8582 103.686 61.6289 103.312 61.6289C102.954 61.6289 102.5 61.7057 102.16 61.5844C101.708 61.4229 101.167 61.184 100.687 61.184C99.715 61.184 98.7316 60.9353 97.7514 60.9171C97.0565 60.9043 95.705 60.3539 95.0923 60.9666C95.0457 61.0132 96.5939 61.285 96.8716 61.2532C97.3308 61.2008 97.8109 61.2325 98.2654 61.1643C98.7074 61.098 99.0588 61.0061 99.5109 61.0061C99.7753 61.0061 100.419 60.8613 100.025 61.1346C99.6247 61.4124 99.5053 61.6289 98.9969 61.6289C98.5497 61.6289 98.1139 61.7178 97.6723 61.7178C97.3314 61.7178 97.0179 61.7128 96.6838 61.787C96.392 61.8519 96.2493 61.9847 95.9326 61.9847C95.4199 61.9847 94.7668 61.8673 94.3312 62.1577C93.8945 62.4488 93.2222 62.1999 92.7298 62.3406C91.6574 62.647 90.7059 63.024 89.6061 63.1462C88.9906 63.2146 88.135 63.3151 87.5698 63.5663C87.1797 63.7397 86.736 63.6502 86.3243 63.8332C85.6507 64.1326 84.6127 64.1546 83.8728 64.2138C83.2248 64.2656 82.62 64.4758 81.965 64.4758C81.6665 64.4758 81.3024 64.533 81.0308 64.6537C80.7984 64.757 80.5461 64.7048 80.3241 64.8316C79.7835 65.1405 78.9695 65.0311 78.3668 65.232C77.6679 65.465 76.8068 65.5433 76.0735 65.5433C75.3171 65.5433 74.749 65.7635 74.1805 66.2056C74.0739 66.2886 73.6415 66.4255 73.5133 66.433C73.2603 66.4479 73.0272 66.6866 72.8015 66.6999C72.3314 66.7275 71.8336 66.7889 71.3781 66.7889C70.9778 66.7889 70.5774 66.7889 70.1771 66.7889C69.5638 66.7889 69.2052 66.6017 68.6399 66.4132C68.0479 66.2159 67.4998 66.1966 66.9793 65.8992C66.751 65.7688 66.5895 65.4711 66.3516 65.3654C66.1642 65.2821 65.979 65.1934 65.8128 65.0985C65.2728 64.7899 64.6378 64.684 64.0829 64.4066C63.8966 64.3134 63.9108 64.1257 63.7716 63.9864C63.5947 63.8096 63.4139 63.727 63.2378 63.5861C63.0586 63.4428 62.8425 63.5358 62.6397 63.4082C62.2165 63.1417 61.8211 62.8497 61.3942 62.5877C60.9661 62.325 60.6484 62.3072 60.1882 62.1429C59.9674 62.064 59.3738 61.8188 59.2788 61.6289" stroke="white" stroke-width="2" stroke-linecap="round"/>
<path d="M103.139 62.2516C103.179 61.9324 105.148 62.2516 105.491 62.2516C105.949 62.2516 106.538 62.5367 106.964 62.7162C107.562 62.9677 108.084 63.3889 108.482 63.853C108.609 64.0012 108.668 64.181 108.788 64.3275C108.88 64.4405 109.064 64.4797 109.169 64.5845C109.562 64.9778 109.686 65.4799 110.167 65.8103C110.482 66.0267 110.733 66.1111 110.982 66.3984C111.369 66.8427 112.191 67.2985 112.787 67.4067C112.957 67.4377 112.986 67.4999 113.108 67.6291C113.261 67.7916 113.527 67.8488 113.726 67.9454C114.041 68.0984 114.264 68.0948 114.546 68.3013C115.233 68.8035 115.982 69.1963 116.661 69.7247C117.096 70.0629 117.565 70.1861 118.04 70.4365C118.484 70.6701 118.846 70.9716 119.286 71.2322C119.533 71.3789 119.839 71.3998 120.077 71.5535C120.314 71.7069 120.455 71.8746 120.744 71.9489C121.625 72.1755 122.524 72.1785 123.403 72.3739C124.257 72.5636 125.201 73.2181 125.736 73.9061C125.939 74.1674 126.123 74.8202 126.448 74.9539C126.529 74.9873 125.943 73.7951 125.879 73.6936C125.691 73.3941 125.473 73.0692 125.36 72.7298C125.175 72.1726 124.994 72.0546 124.481 71.7265C123.902 71.3567 123.578 71.2326 123.339 71.8698C123.229 72.1631 123.336 73.0164 122.958 73.0164C122.425 73.0164 121.906 72.9275 121.377 72.9275C121.138 72.9275 121.431 73.042 121.515 73.0856C121.833 73.2509 122.121 73.4484 122.395 73.6787C122.781 74.0028 123.127 74.3127 123.561 74.5733C124.41 75.0825 125.57 75.2842 126.289 75.9721C126.945 76.5995 127.641 77.6949 128.563 77.9787C128.653 78.0063 129.231 77.9985 128.973 77.9985C128.048 77.9985 127.114 77.0331 126.458 76.4466C126.104 76.1309 126.094 75.6022 125.696 75.3098C125.323 75.0351 124.85 74.9942 124.441 74.7958C123.834 74.5009 123.165 74.1995 122.573 73.8567C122.028 73.5415 121.399 72.9953 120.754 72.9275C120.391 72.8893 119.807 72.5593 119.543 72.3542C119.302 72.1668 118.85 72.1669 118.688 71.8599C118.573 71.6424 118.331 71.4945 118.134 71.3459C117.718 71.0305 117.108 70.7679 116.839 70.2981C116.55 69.7923 115.761 69.7934 115.376 69.4084C115.047 69.0793 114.549 68.7097 114.151 68.4594C113.589 68.107 113.115 67.496 112.525 67.2337C111.902 66.9572 111.309 66.6126 110.701 66.3243C110.069 66.025 109.402 65.8363 108.882 65.316C108.611 65.045 108.359 64.665 108.101 64.4066C108.044 64.3493 107.931 64.4243 107.874 64.367C107.804 64.2976 107.817 64.2348 107.72 64.1595C107.563 64.037 107.322 63.9343 107.187 63.7986C106.605 63.2173 105.857 62.5359 105.007 62.4296C104.551 62.3726 105.599 61.8679 105.654 61.8562C108.607 61.2316 111.945 62.0844 114.645 63.2747C115.616 63.7031 116.476 64.3045 117.418 64.7872C120.342 66.2858 123.617 67.4174 126.843 68.0443C131.196 68.8902 135.88 68.8465 140.242 68.1481C141.247 67.9872 142.608 67.8183 143.529 67.2732C144.061 66.958 144.252 66.1149 144.458 65.5928C144.991 64.2444 145.398 63.0268 145.051 61.5696C144.795 60.4928 144.369 59.4406 143.312 58.9896C142.166 58.5012 141.089 57.8789 139.941 57.3981C138.994 57.0017 138.301 56.5196 137.509 55.8758C136.232 54.8375 134.949 53.8205 133.585 52.9004C132.734 52.3265 131.723 51.7067 131.212 50.8048C130.984 50.4014 130.723 50.1578 130.407 49.841C130.082 49.5167 129.686 49.4168 129.517 48.9464C129.44 48.7339 129.211 48.2704 129.581 48.2841C129.757 48.2906 130.326 48.3829 130.431 48.551C130.572 48.7754 130.54 48.094 130.54 47.9677C130.54 47.6369 130.629 47.3291 130.629 46.9941C130.629 46.0943 130.475 45.1613 130.318 44.2806C130.147 43.3268 129.719 42.4249 129.542 41.4832C129.364 40.5427 128.724 39.7708 128.494 38.8488C128.244 37.8482 127.64 36.9358 127.248 35.9871C126.753 34.7884 126.079 34.1523 125.252 33.2143C125.004 32.9335 124.403 32.471 124.036 32.4186C123.847 32.3916 124.217 34.2573 124.401 34.5241C124.485 34.6446 125.104 34.6523 125.291 34.7613C125.416 34.834 125.651 35.1145 125.429 34.8997C125.185 34.6629 124.948 34.4185 124.708 34.1781C124.27 33.74 123.746 33.4111 123.314 32.9622C122.832 32.4616 122.727 31.7362 122.355 31.1632C122.125 30.8076 121.957 30.4476 121.693 30.1154C121.339 29.671 120.511 29.1731 121.574 29.374C122.071 29.4678 122.393 29.7359 122.761 30.0511C122.945 30.2095 123.069 30.4253 123.265 30.58C123.432 30.7123 123.645 30.7336 123.779 30.8963C124.003 31.169 124.215 31.4211 124.382 31.7365C124.535 32.0264 124.717 32.2638 124.97 32.4779C125.187 32.6614 124.487 32.0995 124.451 32.0726C123.137 31.0873 121.645 30.226 120.482 29.0626C120.167 28.748 119.623 27.9611 119.172 27.911C118.888 27.8794 118.689 27.6654 118.465 27.5057C117.805 27.0341 116.971 26.6911 116.236 26.3492C114.623 25.5981 112.961 25.0008 111.368 24.2041C110.141 23.5904 108.875 23.3888 107.587 22.9981C106.69 22.726 105.643 22.4203 104.701 22.3951C104.253 22.3832 103.018 22.2123 102.694 22.6176C102.539 22.8116 102.254 22.8026 102.022 22.8449C101.446 22.9496 100.904 23.2665 100.341 23.3688C99.9199 23.4454 99.4658 23.4775 99.0364 23.5319C98.3921 23.6136 97.9097 23.7871 97.3164 23.9965C96.7919 24.1817 96.2865 24.4075 95.7694 24.6143C95.4884 24.7267 95.2092 24.7843 94.9489 24.9307C93.9827 25.4742 92.9941 25.9708 92.018 26.4875C91.1647 26.9393 90.3009 27.6004 89.3936 27.9555C89.2128 28.0262 87.8934 28.8044 87.9059 28.8204C88.2349 29.2434 87.2985 29.9075 87.0409 30.0462C86.8067 30.1723 86.6671 30.4399 86.5714 30.6887C86.4369 31.0383 86.0905 31.4057 85.8794 31.7167C85.6068 32.1184 85.2205 32.367 84.9898 32.8041C84.921 32.9343 84.4903 33.6048 84.5449 33.6048" stroke="white" stroke-width="2" stroke-linecap="round"/>
<path d="M132.853 51.2199C133.426 51.2199 134.01 51.0766 134.583 51.037C134.877 51.0168 135.356 50.9358 135.522 50.6861" stroke="black" stroke-width="2" stroke-linecap="round"/>
<path d="M138.191 49.6186V50.0634" stroke="white" stroke-width="2" stroke-linecap="round"/>
<path d="M133.298 51.4868C134.187 51.737 134.914 51.5105 135.789 51.4868C135.877 51.4845 136.83 51.4977 136.53 51.3089C136.051 51.007 135.278 51.1531 134.741 50.9333C134.266 50.7384 134.047 50.8641 133.565 50.8641C133.062 50.8641 132.326 50.9812 131.929 51.299C131.894 51.3267 132.689 51.3982 132.774 51.3929C133.53 51.3457 134.12 50.8641 134.899 50.8641C135.448 50.8641 136.015 50.7973 136.57 50.7751C136.645 50.7721 136.737 50.6955 136.659 50.6169C136.593 50.551 136.332 50.5972 136.254 50.5972C135.908 50.5972 135.562 50.5972 135.216 50.5972C135.006 50.5972 134.797 50.5972 134.588 50.5972C134.157 50.5972 134.799 50.5972 134.919 50.5972C135.643 50.5972 136.474 50.6918 137.173 50.4588C138.289 50.0867 139.6 50.0634 140.771 50.0634C141.975 50.0634 143.185 50.1524 144.374 50.1524C144.908 50.1524 145.452 50.123 145.926 50.4192C146.525 50.7933 147.274 50.7637 147.888 51.0222C148.111 51.1161 148.363 51.1191 148.6 51.131C148.892 51.1456 149.098 51.3086 149.356 51.388C149.857 51.5421 150.338 52 150.893 52.0206C151.417 52.04 151.771 52.487 152.139 52.7323C152.612 53.0479 153.025 53.4048 153.454 53.7554C154.479 54.5946 155.509 55.3944 156.627 56.113C156.892 56.2837 157.118 56.4771 156.656 56.4689C155.429 56.447 154.564 55.8663 153.483 55.4013C153.363 55.3494 153.052 55.0397 152.94 55.0356C152.693 55.0264 152.642 55.1174 152.376 54.996C152.222 54.9256 152.165 54.9307 152.396 54.996C152.949 55.1527 153.489 55.2605 154.057 55.3568C155.125 55.5382 156.089 55.7856 156.943 56.4689C157.605 56.9985 158.349 57.4469 159.118 57.8034C159.602 58.0279 160.056 58.1971 160.304 58.6584C160.62 59.246 160.963 59.7314 161.233 60.3389C161.456 60.8402 161.788 61.3003 162.034 61.8068C162.374 62.5062 162.401 63.1925 162.973 63.7641C163.153 63.944 163.343 64.1014 163.526 64.2781C163.751 64.4938 163.848 64.7541 164.075 65.0096C164.3 65.2626 164.525 65.6621 164.703 65.9536C164.892 66.2636 164.97 66.4783 164.97 66.8284C164.97 67.0362 165.156 67.2127 165.276 67.3672C165.41 67.5396 165.476 67.9053 165.573 68.1234C165.673 68.3493 165.752 68.7447 165.77 68.9932C165.8 69.3994 166.077 69.8389 166.215 70.219C166.467 70.9127 166.552 71.686 166.729 72.3937C167.024 73.573 166.722 74.6888 166.576 75.8584C166.356 77.618 164.107 77.3254 162.854 77.4845C162.391 77.5433 161.51 77.7255 161.055 77.5339C160.232 77.1874 159.017 77.5537 158.159 77.5537C157.362 77.5537 156.564 77.5537 155.767 77.5537C154.486 77.5537 153.21 77.9096 151.936 77.9096C149.88 77.9096 147.791 77.9985 145.733 77.9985C144.069 77.9985 142.488 78.7992 140.865 78.7992C140.752 78.7992 140.671 78.8181 140.825 78.7943C141.257 78.7279 141.671 78.7026 142.111 78.7152C143.903 78.7664 145.679 78.8882 147.478 78.8882C150.514 78.8882 153.384 78.2358 156.36 77.8206C157.267 77.694 158.022 77.5537 158.92 77.5537C159.586 77.5537 160.319 77.5148 160.946 77.2868C161.628 77.0389 162.393 76.6672 163.101 76.5553C163.986 76.4156 164.932 76.1952 165.82 76.1302C166.321 76.0936 166.743 75.6008 166.645 75.0973C166.545 74.5769 166.072 74.0657 165.77 73.6343C165.617 73.4149 165.389 73.2553 165.281 73.0609C165.052 72.648 165.261 71.8413 165.232 71.3805C165.185 70.6553 164.94 70.0014 164.416 69.4776C164.137 69.1985 163.559 68.9329 163.546 68.4792C163.535 68.0908 163.611 67.6529 163.526 67.2732C163.489 67.1057 163.163 66.6373 163.032 66.5813C162.915 66.5309 163.079 66.8332 163.111 66.9569C163.196 67.2786 163.282 67.5995 163.349 67.9257C163.479 68.5638 163.675 69.1408 163.848 69.7643C164.094 70.655 164.146 71.6425 164.075 72.5617C164.039 73.0359 163.893 73.5123 164.08 73.9753C164.155 74.1601 164.457 74.5557 164.683 74.5783C165.12 74.622 163.905 74.5289 163.803 74.5289C162.607 74.5289 161.494 74.7415 160.319 74.8798C160.051 74.9113 159.82 75.2447 159.627 75.4185C159.367 75.6525 157.694 76.1713 157.694 76.5257C157.694 76.743 159.354 76.4359 159.513 76.3971C160.022 76.2732 160.556 76.1095 161.055 75.9523C161.804 75.7165 162.487 75.708 163.19 75.3098C163.604 75.0755 163.635 74.616 163.635 74.1928C163.635 73.6679 164.196 74.0381 164.362 74.3065C164.434 74.4238 164.12 75.1339 164.386 75.0577C164.474 75.0327 163.182 73.2994 162.973 73.1153C162.633 72.8165 162.322 72.6362 162.434 72.1663C162.475 71.996 162.49 71.0891 162.479 71.7215C162.47 72.233 162.565 73.0407 162.123 73.3921C161.942 73.536 161.407 73.9715 161.559 73.7974C162.221 73.0415 162.352 72.0221 162.523 71.0691C162.543 70.9574 162.86 69.8391 163.012 69.9916" stroke="white" stroke-width="2" stroke-linecap="round"/>
<path d="M166.326 76.7914C166.326 76.8316 166.372 76.8589 166.395 76.8874C166.431 76.932 166.478 76.9811 166.504 77.0324C166.544 77.1121 166.543 77.226 166.602 77.298C166.656 77.3645 166.67 77.5847 166.777 77.5847" stroke="white" stroke-width="2" stroke-linecap="round"/>
<path d="M166.968 77.7956C166.984 77.8233 167.025 77.8452 167.028 77.876C167.031 77.8933 167.034 77.8744 167.021 77.8559C167.004 77.8333 166.994 77.824 166.967 77.8151C166.908 77.7955 166.862 77.7451 166.798 77.7359C166.746 77.7286 166.701 77.7072 166.657 77.6852" stroke="white" stroke-width="2" stroke-linecap="round"/>
<path d="M166.366 77.8157C166.256 77.8495 166.129 77.8358 166.014 77.8358C165.982 77.8358 165.954 77.819 165.923 77.8151C165.871 77.8086 165.807 77.8024 165.759 77.7805C165.717 77.7615 165.671 77.7139 165.627 77.7058C165.523 77.6869 165.405 77.7155 165.303 77.7331C165.208 77.7497 165.125 77.7354 165.032 77.7354C164.902 77.7354 164.774 77.7655 164.644 77.7655C164.531 77.7655 164.419 77.7768 164.306 77.7861C164.244 77.7913 164.192 77.8157 164.129 77.8157C164.079 77.8157 164.03 77.8157 163.981 77.8157C163.797 77.8157 163.592 77.7943 163.412 77.7543C163.259 77.7204 163.07 77.7067 162.912 77.7264C162.792 77.7414 162.671 77.7956 162.547 77.7956C162.404 77.7956 162.247 77.7956 162.104 77.8135C162.015 77.8247 161.921 77.8201 161.831 77.8263C161.752 77.8317 161.674 77.8588 161.595 77.8653C161.337 77.8869 161.081 77.9362 160.822 77.9362" stroke="white" stroke-width="2" stroke-linecap="round"/>
</svg>
